Coordinates
version=1
nRows=6
nColumns=4
inDegrees=yes

Units are S.I. units (second, meters, Newtons, ...)
Angles are in degrees.

endheader
time	joint_1	joint_2	transX
      0.00000000	     89.99979656	     45.00079276	      0.00000000
      0.01000000	     83.27758713	     45.62666888	      0.00000000
      0.02000000	     79.08766124	     35.42610037	      0.00000000
      0.03000000	    104.14567026	    -62.87190810	      0.00000000
      0.04000000	     99.21989993	    -76.92147154	      0.00000000
      0.05000000	     92.12291130	    -81.24918665	      0.00000000
